<svg width="403" height="100" viewBox="0 0 403 100" fill="none" xmlns="http://www.w3.org/2000/svg">
<path d="M65.2891 60.6773C60.6404 58.7959 56.2758 56.7108 52.2422 54.4312C50.7403 55.8518 48.7089 56.7383 46.4667 56.7383C46.0025 56.7383 45.5551 56.6757 45.1104 56.6031C41.9354 62.2382 40.3196 67.8125 40.2799 73.2748C41.7456 75.0252 43.3764 76.6287 45.1492 78.0686C52.1902 75.7581 59.3026 71.6622 66.2156 65.8667C65.5635 64.6956 65.1602 63.3743 65.1602 61.9469C65.1602 61.5112 65.2229 61.0938 65.2891 60.6773Z" fill="#F8B500"/>
<path d="M38.11 48.5114C38.11 47.3135 38.3853 46.1833 38.8548 45.1558C36.9487 43.5156 35.1768 41.8211 33.5619 40.0724C32.5506 43.3712 32 46.8703 32 50.5005C32 56.755 33.6307 62.623 36.4687 67.7273C37.2196 63.4377 38.8274 59.1214 41.2038 54.8477C39.3313 53.3377 38.11 51.0748 38.11 48.5114Z" fill="#F8B500"/>
<path d="M66.415 22.6952C68.8602 22.6952 71.0434 23.7537 72.5726 25.4072C76.2542 23.2303 80.1351 21.1477 84.2393 19.1978C79.2491 16.5242 73.5548 15 67.5004 15C60.4929 15 53.9797 17.0576 48.4768 20.5609C52.5025 22.1126 56.3702 23.8037 60.1064 25.5884C61.6392 23.833 63.8842 22.6952 66.415 22.6952Z" fill="#F8B500"/>
<path d="M74.3569 33.3537C78.8291 36.1317 82.9986 39.0657 86.8055 42.1333C89.7184 37.6492 92.4151 32.8896 94.863 27.8863C92.9702 25.6001 90.7747 23.5834 88.3753 21.8322C83.4637 24.0725 78.8388 26.4865 74.5334 29.0458C74.6764 29.6518 74.7717 30.2745 74.7717 30.9222C74.7717 31.7736 74.6014 32.5799 74.3569 33.3537Z" fill="#F8B500"/>
<path d="M66.415 39.1466C64.7225 39.1466 63.15 38.6416 61.8325 37.7852C58.9549 40.094 56.3146 42.4763 53.9532 44.9304C54.4915 46.018 54.8216 47.2225 54.8216 48.5113C54.8216 49.4779 54.6204 50.3936 54.308 51.2558C58.1439 53.4161 62.2685 55.4202 66.7045 57.2107C68.2196 55.1055 70.6984 53.7182 73.5151 53.7182C74.9235 53.7182 76.233 54.0955 77.3996 54.7057C79.9366 51.7508 82.3757 48.6223 84.6797 45.301C80.9452 42.2751 76.8357 39.3737 72.4103 36.6283C70.889 38.1759 68.7685 39.1466 66.415 39.1466Z" fill="#F8B500"/>
<path d="M87.7382 47.8777C85.4112 51.1982 82.9607 54.3392 80.4043 57.3033C81.3282 58.6255 81.8727 60.2231 81.8727 61.946C81.8727 62.0445 81.8453 62.1371 81.8418 62.2348C87.4453 63.7414 93.3276 64.9726 99.4561 65.8825C99.9988 64.759 100.482 63.6062 100.906 62.4218C97.4495 57.411 93.0311 52.5187 87.7382 47.8777Z" fill="#F8B500"/>
<path d="M73.5151 70.1697C71.7935 70.1697 70.1919 69.653 68.8603 68.7707C62.3885 74.188 55.7208 78.2213 49.0496 80.7873C54.4315 84.0727 60.733 86.0001 67.5004 86.0001C80.1334 86.0001 91.1974 79.3791 97.4874 69.4385C91.703 68.5236 86.1402 67.3175 80.8111 65.8734C79.3895 68.4218 76.6698 70.1697 73.5151 70.1697Z" fill="#F8B500"/>
<path d="M97.498 31.5758C95.1596 36.1692 92.6155 40.5582 89.8888 44.7125C94.6787 48.8761 98.8341 53.2408 102.259 57.7291C102.743 55.3952 103 52.9787 103 50.5005C102.999 43.5348 100.964 37.0582 97.498 31.5758Z" fill="#F8B500"/>
<path d="M51.1895 41.7376C53.5632 39.3161 56.1787 36.9581 59.0264 34.6784C58.4298 33.5466 58.0601 32.2811 58.0601 30.9214C58.0601 30.2469 58.1651 29.6034 58.3213 28.9765C53.9921 26.9248 49.4555 25.0158 44.7318 23.2762C40.6276 26.7136 37.3272 31.0683 35.1115 36.0165C36.9054 38.145 38.9677 40.1892 41.2267 42.1592C42.6651 41.0064 44.4732 40.2869 46.4675 40.2869C48.2192 40.2869 49.8437 40.8253 51.1895 41.7376Z" fill="#F8B500"/>
<path d="M46.2187 52.1581C48.497 52.1581 50.344 50.411 50.344 48.2558C50.344 46.1006 48.497 44.3535 46.2187 44.3535C43.9403 44.3535 42.0933 46.1006 42.0933 48.2558C42.0933 50.411 43.9403 52.1581 46.2187 52.1581Z" fill="#F8B500"/>
<path d="M66.603 34.7117C68.8814 34.7117 70.7284 32.9646 70.7284 30.8094C70.7284 28.6542 68.8814 26.9071 66.603 26.9071C64.3246 26.9071 62.4776 28.6542 62.4776 30.8094C62.4776 32.9646 64.3246 34.7117 66.603 34.7117Z" fill="#F8B500"/>
<path d="M73.2769 65.8158C75.5553 65.8158 77.4023 64.0687 77.4023 61.9135C77.4023 59.7583 75.5553 58.0112 73.2769 58.0112C70.9985 58.0112 69.1515 59.7583 69.1515 61.9135C69.1515 64.0687 70.9985 65.8158 73.2769 65.8158Z" fill="#F8B500"/>
<path d="M137.898 32.1875V72H132.621V32.1875H137.898ZM154.578 50.0977V54.418H136.75V50.0977H154.578ZM157.285 32.1875V36.5078H136.75V32.1875H157.285ZM169.234 32.1875V72H163.957V32.1875H169.234ZM209.457 32.1875V72H204.152L184.109 41.293V72H178.832V32.1875H184.109L204.234 62.9766V32.1875H209.457ZM232.699 32.1875V72H227.504V32.1875H232.699ZM245.496 32.1875V36.5078H214.734V32.1875H245.496ZM281.289 50.8359V53.3516C281.289 56.3411 280.915 59.0208 280.168 61.3906C279.421 63.7604 278.345 65.7747 276.941 67.4336C275.538 69.0924 273.852 70.3594 271.883 71.2344C269.932 72.1094 267.745 72.5469 265.32 72.5469C262.969 72.5469 260.809 72.1094 258.84 71.2344C256.889 70.3594 255.194 69.0924 253.754 67.4336C252.332 65.7747 251.229 63.7604 250.445 61.3906C249.661 59.0208 249.27 56.3411 249.27 53.3516V50.8359C249.27 47.8464 249.652 45.1758 250.418 42.8242C251.202 40.4544 252.305 38.4401 253.727 36.7812C255.148 35.1042 256.835 33.8281 258.785 32.9531C260.754 32.0781 262.914 31.6406 265.266 31.6406C267.69 31.6406 269.878 32.0781 271.828 32.9531C273.797 33.8281 275.483 35.1042 276.887 36.7812C278.309 38.4401 279.393 40.4544 280.141 42.8242C280.906 45.1758 281.289 47.8464 281.289 50.8359ZM276.066 53.3516V50.7812C276.066 48.4115 275.82 46.3151 275.328 44.4922C274.854 42.6693 274.152 41.138 273.223 39.8984C272.293 38.6589 271.154 37.7201 269.805 37.082C268.474 36.444 266.961 36.125 265.266 36.125C263.625 36.125 262.139 36.444 260.809 37.082C259.496 37.7201 258.366 38.6589 257.418 39.8984C256.488 41.138 255.768 42.6693 255.258 44.4922C254.747 46.3151 254.492 48.4115 254.492 50.7812V53.3516C254.492 55.7396 254.747 57.8542 255.258 59.6953C255.768 61.5182 256.497 63.0586 257.445 64.3164C258.411 65.556 259.551 66.4948 260.863 67.1328C262.194 67.7708 263.68 68.0898 265.32 68.0898C267.034 68.0898 268.556 67.7708 269.887 67.1328C271.217 66.4948 272.339 65.556 273.25 64.3164C274.18 63.0586 274.882 61.5182 275.355 59.6953C275.829 57.8542 276.066 55.7396 276.066 53.3516ZM313.227 59.3398H318.477C318.203 61.8555 317.483 64.1068 316.316 66.0938C315.15 68.0807 313.5 69.6576 311.367 70.8242C309.234 71.9727 306.573 72.5469 303.383 72.5469C301.049 72.5469 298.926 72.1094 297.012 71.2344C295.116 70.3594 293.484 69.1198 292.117 67.5156C290.75 65.8932 289.693 63.9518 288.945 61.6914C288.216 59.4128 287.852 56.8789 287.852 54.0898V50.125C287.852 47.3359 288.216 44.8112 288.945 42.5508C289.693 40.2721 290.759 38.3216 292.145 36.6992C293.548 35.0768 295.234 33.8281 297.203 32.9531C299.172 32.0781 301.387 31.6406 303.848 31.6406C306.855 31.6406 309.398 32.2057 311.477 33.3359C313.555 34.4661 315.168 36.0339 316.316 38.0391C317.483 40.026 318.203 42.332 318.477 44.957H313.227C312.971 43.0977 312.497 41.5026 311.805 40.1719C311.112 38.8229 310.128 37.7839 308.852 37.0547C307.576 36.3255 305.908 35.9609 303.848 35.9609C302.079 35.9609 300.521 36.2982 299.172 36.9727C297.841 37.6471 296.72 38.6042 295.809 39.8438C294.915 41.0833 294.241 42.569 293.785 44.3008C293.329 46.0326 293.102 47.9557 293.102 50.0703V54.0898C293.102 56.0404 293.302 57.8724 293.703 59.5859C294.122 61.2995 294.751 62.8034 295.59 64.0977C296.428 65.3919 297.495 66.4128 298.789 67.1602C300.083 67.8893 301.615 68.2539 303.383 68.2539C305.625 68.2539 307.411 67.8984 308.742 67.1875C310.073 66.4766 311.076 65.4557 311.75 64.125C312.443 62.7943 312.935 61.1992 313.227 59.3398ZM351.672 49.3047V53.5977H330.125V49.3047H351.672ZM330.945 32.1875V72H325.668V32.1875H330.945ZM356.266 32.1875V72H351.016V32.1875H356.266Z" fill="black"/>
</svg>
